<svg width="259" height="62" viewBox="0 0 259 62" fill="none" xmlns="http://www.w3.org/2000/svg">
<g clip-path="url(#clip0_1_4335)">
<g clip-path="url(#clip1_1_4335)">
<path d="M24.2179 20.47C25.0997 20.47 25.8146 19.7447 25.8146 18.85C25.8146 17.9553 25.0997 17.23 24.2179 17.23C23.336 17.23 22.6211 17.9553 22.6211 18.85C22.6211 19.7447 23.336 20.47 24.2179 20.47Z" fill="black"/>
<path d="M16.5305 21.5229C14.4813 21.5229 12.8047 19.8219 12.8047 17.7429C12.8047 15.6639 14.4813 13.9629 16.5305 13.9629C18.5797 13.9629 20.2563 15.6639 20.2563 17.7429C20.2563 19.8219 18.5797 21.5229 16.5305 21.5229ZM16.5305 16.1499C15.6523 16.1499 14.9603 16.8789 14.9603 17.7429C14.9603 18.6069 15.6789 19.3359 16.5305 19.3359C17.3821 19.3359 18.1007 18.6069 18.1007 17.7429C18.1007 16.8789 17.3821 16.1499 16.5305 16.1499Z" fill="black"/>
<path d="M16.5286 57.919C7.53339 57.919 0.214844 50.494 0.214844 41.368V25.708C0.214844 25.303 0.427747 24.952 0.773715 24.763C1.11968 24.574 1.54549 24.601 1.86484 24.817C5.59065 27.274 10.9132 28.705 16.5019 28.705C21.9044 28.705 27.3866 27.247 31.1656 24.817C31.485 24.601 31.9108 24.601 32.2568 24.79C32.6027 24.979 32.8157 25.357 32.8157 25.735V41.395C32.8157 50.494 25.4971 57.919 16.5286 57.919ZM2.34388 27.625V41.395C2.34388 49.306 8.70436 55.759 16.5019 55.759C24.2995 55.759 30.66 49.306 30.66 41.395V27.625C26.6947 29.704 21.6382 30.892 16.5019 30.892C11.3124 30.865 6.25597 29.704 2.34388 27.625Z" fill="black"/>
<path d="M16.5298 25.951C11.1008 25.951 5.91125 24.709 1.91932 22.414C0.801575 21.793 0.162865 20.551 0.269317 19.282C0.615285 15.178 2.47819 11.371 5.48545 8.56296C8.51932 5.72796 12.4314 4.18896 16.5298 4.18896C20.6282 4.18896 24.5669 5.75496 27.5742 8.56296C30.5814 11.371 32.4177 15.178 32.7903 19.282C32.8967 20.551 32.258 21.793 31.1403 22.414C27.1217 24.682 21.9322 25.951 16.5298 25.951ZM16.5298 6.37596C9.26448 6.37596 3.06367 12.127 2.39835 19.471C2.37174 19.903 2.58464 20.308 2.95722 20.524C6.65641 22.63 11.4733 23.764 16.5298 23.764C21.5863 23.764 26.4032 22.603 30.1024 20.524C30.475 20.308 30.6879 19.903 30.6613 19.471C29.9959 12.127 23.7951 6.37596 16.5298 6.37596Z" fill="black"/>
<path d="M13.8683 18.7689C13.8417 18.7689 13.8151 18.7689 13.7885 18.7689C9.66349 18.4449 5.778 17.3919 2.58446 15.7179C2.0522 15.4479 1.83929 14.7729 2.13204 14.2599C2.39816 13.7199 3.06349 13.5039 3.56913 13.8009C6.52316 15.3399 10.1159 16.3119 13.9482 16.6089C14.5336 16.6629 14.9861 17.1759 14.9328 17.7699C14.9062 18.3369 14.4272 18.7689 13.8683 18.7689Z" fill="black"/>
<path d="M16.5275 41.9349C10.5396 41.9349 4.79118 40.3959 0.746016 37.7229C0.240371 37.3989 0.107307 36.7239 0.426662 36.2109C0.746016 35.6979 1.41134 35.5629 1.91698 35.8869C5.64279 38.3439 10.9654 39.7479 16.5275 39.7479C22.0896 39.7479 27.4388 38.3439 31.138 35.8869C31.6436 35.5629 32.3089 35.6979 32.6283 36.2109C32.9476 36.7239 32.8146 37.3989 32.3089 37.7229C28.2371 40.3959 22.4888 41.9349 16.5275 41.9349Z" fill="black"/>
<path d="M16.5282 46.822C10.5669 46.822 4.84513 45.283 0.77336 42.637C0.267715 42.313 0.13465 41.638 0.454005 41.125C0.77336 40.612 1.43868 40.477 1.94433 40.801C5.67013 43.231 10.9661 44.635 16.5282 44.635C22.0903 44.635 27.3863 43.231 31.1121 40.801C31.6177 40.477 32.283 40.612 32.6024 41.125C32.9217 41.638 32.7887 42.313 32.283 42.637C28.2113 45.31 22.4629 46.822 16.5282 46.822Z" fill="black"/>
<path d="M44.3827 30.5039C45.1429 30.8867 46.0604 31.0781 47.1089 31.0781C48.1574 31.0781 49.0749 30.8867 49.7827 30.5039C50.4904 30.1211 51.0934 29.6562 51.539 29.1367C51.9846 28.6172 52.2992 28.043 52.5089 27.4961C52.7186 26.9492 52.7972 26.457 52.7972 26.1016C52.7972 25.9922 52.7448 25.9375 52.64 25.9375H50.805C50.7002 25.9375 50.6215 25.9922 50.5953 26.1016C50.5167 26.375 50.4118 26.7031 50.2545 27.0586C50.1235 27.4141 49.9138 27.7422 49.6516 28.043C49.3895 28.3438 49.0487 28.5898 48.6555 28.8086C48.2623 29.0273 47.738 29.1094 47.1351 29.1094C45.9031 29.1094 44.9594 28.5898 44.304 27.5234C43.6487 26.457 43.3079 24.9805 43.3079 23.1211C43.3079 21.2344 43.6487 19.7578 44.304 18.7188C44.9594 17.6797 45.9031 17.1328 47.1351 17.1328C47.7642 17.1328 48.2885 17.2422 48.6817 17.4609C49.0749 17.6797 49.4157 17.9531 49.6778 18.2812C49.94 18.582 50.1235 18.9375 50.2545 19.2656C50.3856 19.6211 50.4904 19.8945 50.5691 20.1406C50.5953 20.25 50.6739 20.3047 50.7788 20.3047H52.6138C52.7186 20.3047 52.771 20.25 52.771 20.1133C52.771 19.8125 52.6924 19.375 52.5089 18.8008C52.3254 18.2539 52.0108 17.6797 51.5914 17.1602C51.1458 16.6133 50.5691 16.1484 49.8351 15.7383C49.1011 15.3281 48.1837 15.1367 47.0827 15.1367C46.0341 15.1367 45.1167 15.3281 44.3565 15.7383C43.5963 16.1484 42.9671 16.6953 42.4691 17.4062C41.971 18.1172 41.604 18.9648 41.3681 19.9219C41.1322 20.8789 41.0273 21.9727 41.0273 23.1211C41.0273 24.2969 41.1322 25.3633 41.3681 26.3477C41.604 27.332 41.971 28.1797 42.4691 28.8633C42.9671 29.5469 43.6225 30.1211 44.3827 30.5039Z" fill="black"/>
<path d="M56.179 30.8594H66.1402C66.245 30.8594 66.3237 30.8047 66.3237 30.6953V29.0547C66.3237 28.9453 66.2712 28.8906 66.1402 28.8906H59.0625C59.0101 28.8906 59.0101 28.8906 59.0101 28.8906C59.0101 28.8633 59.0101 28.8633 59.0101 28.8359L63.8596 24.4062C64.0431 24.2148 64.279 23.9688 64.5674 23.6953C64.8557 23.4219 65.1178 23.0664 65.38 22.6836C65.6421 22.3008 65.8518 21.8633 66.0353 21.3984C66.2188 20.9336 66.3237 20.4141 66.3237 19.8398C66.3237 19.2109 66.2188 18.6094 65.9829 18.0352C65.747 17.4609 65.4062 16.9688 64.9868 16.5312C64.5674 16.1211 64.0169 15.7656 63.3877 15.5195C62.7586 15.2734 62.0246 15.1367 61.2382 15.1367C60.5305 15.1367 59.8751 15.2461 59.2722 15.4648C58.6693 15.6836 58.145 15.9844 57.6994 16.3945C57.2538 16.7773 56.913 17.2695 56.6508 17.8164C56.4149 18.3633 56.2839 18.9922 56.2839 19.6484C56.2839 19.7578 56.3363 19.8125 56.4674 19.8125H58.3285C58.4334 19.8125 58.512 19.7578 58.512 19.6484C58.512 19.3203 58.5644 19.0195 58.6955 18.7188C58.8266 18.418 59.0101 18.1445 59.246 17.9258C59.4819 17.6797 59.7703 17.5156 60.111 17.3516C60.4518 17.2148 60.8188 17.1328 61.2382 17.1328C61.7363 17.1328 62.1819 17.2148 62.5227 17.4062C62.8897 17.5703 63.178 17.8164 63.414 18.0898C63.6499 18.3633 63.8072 18.6641 63.9382 18.9648C64.0431 19.293 64.1217 19.5664 64.1217 19.8398C64.1217 20.168 64.0431 20.4961 63.912 20.7969C63.7809 21.125 63.5975 21.4258 63.3877 21.6992C63.178 21.9727 62.9683 22.2188 62.7586 22.4102L56.1528 28.8086C56.1004 28.8359 56.0742 28.918 56.0742 28.9727C56.0479 29.0547 56.0479 29.082 56.0479 29.1367V30.668C55.9955 30.8047 56.0742 30.8594 56.179 30.8594Z" fill="black"/>
<path d="M51.6954 35.5898C51.3022 35.1523 50.8304 34.8242 50.3061 34.5781C49.7818 34.332 49.2313 34.2227 48.6546 34.2227H42.7304C42.6255 34.2227 42.5469 34.2773 42.5469 34.4141V49.5898C42.5469 49.6992 42.5993 49.7812 42.7304 49.7812H44.5129C44.6177 49.7812 44.6964 49.7266 44.6964 49.5898V43.6836C44.6964 43.6562 44.6964 43.6289 44.7226 43.6289H48.6546C49.2313 43.6289 49.7818 43.5195 50.3061 43.2734C50.8304 43.0273 51.3022 42.6992 51.6954 42.2891C52.0886 41.8789 52.4032 41.3594 52.6391 40.8125C52.875 40.2656 52.9799 39.6367 52.9799 38.9805C52.9799 38.3242 52.8488 37.6953 52.6391 37.1211C52.4032 36.5195 52.0886 36 51.6954 35.5898ZM50.8566 38.9531C50.8566 39.3086 50.7779 39.6641 50.6469 39.9922C50.5158 40.3203 50.3323 40.5938 50.0964 40.8398C49.8605 41.0859 49.5983 41.2773 49.31 41.4141C49.0216 41.5508 48.7071 41.6328 48.3925 41.6328H44.7226C44.6964 41.6328 44.6964 41.6328 44.6964 41.6055V36.2734C44.6964 36.2461 44.6964 36.2461 44.7226 36.2461H48.3925C48.7071 36.2461 49.0216 36.3281 49.31 36.4648C49.5983 36.6016 49.8605 36.8203 50.0964 37.0664C50.3323 37.3125 50.5158 37.6133 50.6469 37.9414C50.7779 38.2148 50.8566 38.5703 50.8566 38.9531Z" fill="black"/>
<path d="M67.7924 49.5078L62.9166 34.332C62.8642 34.1953 62.7856 34.168 62.7331 34.168H60.138C60.0856 34.168 60.0069 34.1953 59.9545 34.332L55.0001 49.4805C54.9739 49.5352 54.9739 49.5898 55.0001 49.6445C55.0263 49.6992 55.0788 49.6992 55.1574 49.6992H57.1234C57.2021 49.6992 57.2545 49.6445 57.2807 49.5352L58.2768 46.418C58.303 46.3633 58.3293 46.3633 58.3293 46.3633H64.4108C64.4894 46.3633 64.4894 46.3906 64.4894 46.418L65.4594 49.5625C65.5118 49.6992 65.5642 49.7266 65.6166 49.7266H67.5827C67.6613 49.7266 67.7137 49.6992 67.7399 49.6719C67.7924 49.6445 67.7924 49.5898 67.7924 49.5078ZM63.9127 44.5039C63.9127 44.5039 63.8865 44.5039 63.8603 44.5039H58.9322C58.906 44.5039 58.8797 44.5039 58.8797 44.5039C58.8797 44.5039 58.8797 44.5039 58.8797 44.4766L61.3438 36.4922C61.37 36.4102 61.3962 36.4102 61.4225 36.4922L63.8865 44.4766C63.9128 44.4766 63.9127 44.5039 63.9127 44.5039Z" fill="black"/>
</g>
</g>
<rect x="88" width="1" height="62" fill="black"/>
<g clip-path="url(#clip2_1_4335)">
<g clip-path="url(#clip3_1_4335)">
<path d="M114.902 19.144C117.574 19.144 119.078 17.688 119.542 15.688H117.462C117.174 16.472 116.598 17.496 114.982 17.496C112.71 17.496 111.942 15.416 111.942 13.448C111.942 11.352 112.79 9.43204 114.918 9.43204C116.502 9.43204 117.174 10.296 117.462 11.272H119.542C119.238 9.41604 117.814 7.76804 114.998 7.76804C111.494 7.76804 109.798 10.488 109.798 13.512C109.798 16.664 111.462 19.144 114.902 19.144ZM124.774 19.192C127.35 19.192 128.79 17.32 128.79 14.872C128.79 12.296 127.254 10.584 124.87 10.584C122.31 10.584 120.822 12.408 120.822 14.904C120.822 17.368 122.278 19.192 124.774 19.192ZM124.822 17.608C123.59 17.608 122.838 16.552 122.838 14.888C122.838 13.096 123.574 12.168 124.79 12.168C126.07 12.168 126.758 13.128 126.758 14.904C126.758 16.568 126.07 17.608 124.822 17.608ZM132.742 19.192C134.246 19.192 134.838 18.6 135.126 18.104C135.142 18.408 135.19 18.824 135.254 19H137.158C137.114 18.8069 137.055 17.8964 137.047 17.1524L137.046 13.368C137.046 11.448 135.878 10.6 133.734 10.584C131.286 10.568 130.438 11.8 130.326 13.144H132.23C132.342 12.536 132.566 12.04 133.654 12.04C134.886 12.04 135.094 12.712 135.094 13.352V13.912H133.846C131.43 13.912 129.942 14.776 129.942 16.632C129.942 17.896 130.774 19.192 132.742 19.192ZM133.27 17.736C132.39 17.736 131.942 17.192 131.942 16.52C131.942 15.592 132.582 15.16 134.038 15.16H135.11V15.4C135.11 16.616 134.902 17.736 133.27 17.736ZM141.222 19V7.30404H139.238V19H141.222ZM145.382 9.24005V7.30404H143.398V9.24005H145.382ZM145.382 19V10.776H143.398V19H145.382ZM150.022 19.112C150.47 19.112 151.046 19.096 151.462 18.952V17.56C151.27 17.592 151.03 17.592 150.87 17.592C150.166 17.592 149.974 17.304 149.974 16.616V12.296H151.654V10.776H149.974V8.48804H147.99V10.776H146.678V12.296H147.99V16.904C147.99 18.312 148.534 19.112 150.022 19.112ZM155.11 9.24005V7.30404H153.126V9.24005H155.11ZM155.11 19V10.776H153.126V19H155.11ZM160.726 19.192C163.302 19.192 164.742 17.32 164.742 14.872C164.742 12.296 163.206 10.584 160.822 10.584C158.262 10.584 156.774 12.408 156.774 14.904C156.774 17.368 158.23 19.192 160.726 19.192ZM160.774 17.608C159.542 17.608 158.79 16.552 158.79 14.888C158.79 13.096 159.526 12.168 160.742 12.168C162.022 12.168 162.71 13.128 162.71 14.904C162.71 16.568 162.022 17.608 160.774 17.608ZM168.406 19V14.488C168.406 12.968 168.982 12.216 170.15 12.216C171.238 12.216 171.606 12.952 171.606 13.976V19H173.59V13.752C173.59 11.64 172.47 10.584 170.854 10.584C169.366 10.584 168.694 11.352 168.406 11.928C168.406 11.672 168.374 11 168.326 10.776H166.406C166.419 11.2752 166.422 11.8461 166.422 12.415L166.422 19H168.406ZM181.958 19V12.296H183.462V10.776H181.958V10.104C181.958 9.11204 182.23 8.77604 182.966 8.77604C183.158 8.77604 183.382 8.80804 183.526 8.84004V7.24004C183.318 7.17604 182.87 7.14404 182.518 7.14404C180.726 7.14404 179.974 8.32804 179.974 9.96004V10.776H178.726V12.296H179.974V19H181.958ZM188.134 19.192C190.71 19.192 192.15 17.32 192.15 14.872C192.15 12.296 190.614 10.584 188.23 10.584C185.67 10.584 184.182 12.408 184.182 14.904C184.182 17.368 185.638 19.192 188.134 19.192ZM188.182 17.608C186.95 17.608 186.198 16.552 186.198 14.888C186.198 13.096 186.934 12.168 188.15 12.168C189.43 12.168 190.118 13.128 190.118 14.904C190.118 16.568 189.43 17.608 188.182 17.608ZM195.798 19V15.272C195.798 13.08 196.822 12.488 198.486 12.504V10.584C197.094 10.6 196.182 11.304 195.798 12.296C195.798 11.736 195.782 10.968 195.75 10.776H193.798C193.808 11.156 193.812 11.5673 193.813 12.0489L193.814 19H195.798ZM114.902 35.144C117.574 35.144 119.078 33.688 119.542 31.688H117.462C117.174 32.472 116.598 33.496 114.982 33.496C112.71 33.496 111.942 31.416 111.942 29.448C111.942 27.352 112.79 25.432 114.918 25.432C116.502 25.432 117.174 26.296 117.462 27.272H119.542C119.238 25.416 117.814 23.768 114.998 23.768C111.494 23.768 109.798 26.488 109.798 29.512C109.798 32.664 111.462 35.144 114.902 35.144ZM124.774 35.192C127.35 35.192 128.79 33.32 128.79 30.872C128.79 28.296 127.254 26.584 124.87 26.584C122.31 26.584 120.822 28.408 120.822 30.904C120.822 33.368 122.278 35.192 124.774 35.192ZM124.822 33.608C123.59 33.608 122.838 32.552 122.838 30.888C122.838 29.096 123.574 28.168 124.79 28.168C126.07 28.168 126.758 29.128 126.758 30.904C126.758 32.568 126.07 33.608 124.822 33.608ZM132.454 35V30.488C132.454 28.968 133.03 28.216 134.198 28.216C135.286 28.216 135.654 28.952 135.654 29.976V35H137.638V29.752C137.638 27.64 136.518 26.584 134.902 26.584C133.414 26.584 132.742 27.352 132.454 27.928C132.454 27.672 132.422 27 132.374 26.776H130.454C130.464 27.1504 130.468 27.5652 130.469 27.9891L130.47 28.84V35H132.454ZM142.262 35.112C142.71 35.112 143.286 35.096 143.702 34.952V33.56C143.51 33.592 143.27 33.592 143.11 33.592C142.406 33.592 142.214 33.304 142.214 32.616V28.296H143.894V26.776H142.214V24.488H140.23V26.776H138.918V28.296H140.23V32.904C140.23 34.312 140.774 35.112 142.262 35.112ZM148.646 35.192C151.126 35.192 152.022 33.624 152.326 32.6H150.326C150.102 33.128 149.766 33.608 148.71 33.608C147.478 33.608 146.854 32.536 146.854 31.304H152.406C152.438 31.064 152.438 30.872 152.438 30.6C152.438 28.648 151.51 26.584 148.742 26.584C146.15 26.584 144.854 28.456 144.854 31C144.854 33.144 145.99 35.192 148.646 35.192ZM150.438 30.04H146.902C147.014 28.872 147.51 28.04 148.726 28.04C149.942 28.04 150.422 28.936 150.438 30.04ZM156.07 35V30.488C156.07 28.968 156.646 28.216 157.814 28.216C158.902 28.216 159.27 28.952 159.27 29.976V35H161.254V29.752C161.254 27.64 160.134 26.584 158.518 26.584C157.03 26.584 156.358 27.352 156.07 27.928C156.07 27.672 156.038 27 155.99 26.776H154.07C154.08 27.1504 154.084 27.5652 154.085 27.9891L154.086 28.84V35H156.07ZM165.878 35.112C166.326 35.112 166.902 35.096 167.318 34.952V33.56C167.126 33.592 166.886 33.592 166.726 33.592C166.022 33.592 165.83 33.304 165.83 32.616V28.296H167.51V26.776H165.83V24.488H163.846V26.776H162.534V28.296H163.846V32.904C163.846 34.312 164.39 35.112 165.878 35.112ZM175.27 35V30.728H177.574C179.75 30.728 181.478 29.608 181.478 27.288C181.478 25.208 179.926 23.928 177.638 23.928H173.19V35H175.27ZM177.35 29.048H175.27V25.608H177.414C178.518 25.608 179.382 26.12 179.382 27.336C179.382 28.52 178.598 29.048 177.35 29.048ZM185.222 35V31.272C185.222 29.08 186.246 28.488 187.91 28.504V26.584C186.518 26.6 185.606 27.304 185.222 28.296C185.222 27.736 185.206 26.968 185.174 26.776H183.222C183.232 27.156 183.236 27.5673 183.237 28.0489L183.238 28.663C183.238 28.7718 183.238 28.884 183.238 29V35H185.222ZM192.758 35.192C195.334 35.192 196.774 33.32 196.774 30.872C196.774 28.296 195.238 26.584 192.854 26.584C190.294 26.584 188.806 28.408 188.806 30.904C188.806 33.368 190.262 35.192 192.758 35.192ZM192.806 33.608C191.574 33.608 190.822 32.552 190.822 30.888C190.822 29.096 191.558 28.168 192.774 28.168C194.054 28.168 194.742 29.128 194.742 30.904C194.742 32.568 194.054 33.608 192.806 33.608ZM202.406 35L205.35 26.776H203.366C202.47 29.544 201.654 32.008 201.43 33.224H201.414C201.222 32.216 200.518 29.752 199.622 26.776H197.478L200.294 35H202.406ZM209.862 35.192C212.342 35.192 213.238 33.624 213.542 32.6H211.542C211.318 33.128 210.982 33.608 209.926 33.608C208.694 33.608 208.07 32.536 208.07 31.304H213.622C213.654 31.064 213.654 30.872 213.654 30.6C213.654 28.648 212.726 26.584 209.958 26.584C207.366 26.584 206.07 28.456 206.07 31C206.07 33.144 207.206 35.192 209.862 35.192ZM211.654 30.04H208.118C208.23 28.872 208.726 28.04 209.942 28.04C211.158 28.04 211.638 28.936 211.654 30.04ZM217.286 35V30.488C217.286 28.968 217.862 28.216 219.03 28.216C220.118 28.216 220.486 28.952 220.486 29.976V35H222.47V29.752C222.47 27.64 221.35 26.584 219.734 26.584C218.246 26.584 217.574 27.352 217.286 27.928C217.286 27.672 217.254 27 217.206 26.776H215.286C215.296 27.1504 215.3 27.5652 215.301 27.9891L215.302 28.84V35H217.286ZM226.918 35.192C228.422 35.192 229.014 34.6 229.302 34.104C229.318 34.408 229.366 34.824 229.43 35H231.334C231.29 34.8069 231.231 33.8964 231.223 33.1524L231.222 29.368C231.222 27.448 230.054 26.6 227.91 26.584C225.462 26.568 224.614 27.8 224.502 29.144H226.406C226.518 28.536 226.742 28.04 227.83 28.04C229.062 28.04 229.27 28.712 229.27 29.352V29.912H228.022C225.606 29.912 224.118 30.776 224.118 32.632C224.118 33.896 224.95 35.192 226.918 35.192ZM227.446 33.736C226.566 33.736 226.118 33.192 226.118 32.52C226.118 31.592 226.758 31.16 228.214 31.16H229.286V31.4C229.286 32.616 229.078 33.736 227.446 33.736ZM235.414 35V30.488C235.414 28.968 235.99 28.216 237.158 28.216C238.246 28.216 238.614 28.952 238.614 29.976V35H240.598V29.752C240.598 27.64 239.478 26.584 237.862 26.584C236.374 26.584 235.702 27.352 235.414 27.928C235.414 27.672 235.382 27 235.334 26.776H233.414C233.424 27.1504 233.428 27.5652 233.429 27.9891L233.43 28.84V35H235.414ZM246.07 35.192C248.406 35.192 249.366 33.768 249.67 32.392H247.702C247.462 33.128 246.982 33.624 246.118 33.624C244.966 33.624 244.294 32.664 244.294 30.872C244.294 29.192 244.95 28.168 246.134 28.168C247.126 28.168 247.558 28.712 247.718 29.448H249.67C249.606 28.472 248.806 26.584 246.182 26.584C243.686 26.584 242.262 28.552 242.262 30.936C242.262 33.464 243.606 35.192 246.07 35.192ZM254.47 35.192C256.95 35.192 257.846 33.624 258.15 32.6H256.15C255.926 33.128 255.59 33.608 254.534 33.608C253.302 33.608 252.678 32.536 252.678 31.304H258.23C258.262 31.064 258.262 30.872 258.262 30.6C258.262 28.648 257.334 26.584 254.566 26.584C251.974 26.584 250.678 28.456 250.678 31C250.678 33.144 251.814 35.192 254.47 35.192ZM256.262 30.04H252.726C252.838 28.872 253.334 28.04 254.55 28.04C255.766 28.04 256.246 28.936 256.262 30.04ZM112.374 51.192C113.878 51.192 114.47 50.6 114.758 50.104C114.774 50.408 114.822 50.824 114.886 51H116.79C116.746 50.8069 116.687 49.8964 116.679 49.1524L116.678 45.368C116.678 43.448 115.51 42.6 113.366 42.584C110.918 42.568 110.07 43.8 109.958 45.144H111.862C111.974 44.536 112.198 44.04 113.286 44.04C114.518 44.04 114.726 44.712 114.726 45.352V45.912H113.478C111.062 45.912 109.574 46.7761 109.574 48.632C109.574 49.896 110.406 51.192 112.374 51.192ZM112.902 49.736C112.022 49.736 111.574 49.192 111.574 48.52C111.574 47.592 112.214 47.16 113.67 47.16H114.742V47.4C114.742 48.616 114.534 49.736 112.902 49.736ZM120.87 51V46.488C120.87 44.968 121.446 44.216 122.614 44.216C123.702 44.216 124.07 44.952 124.07 45.976V51H126.054V45.752C126.054 43.64 124.934 42.584 123.318 42.584C121.83 42.584 121.158 43.352 120.87 43.928C120.87 43.672 120.838 43 120.79 42.776H118.87C118.88 43.1504 118.884 43.5652 118.885 43.9891L118.886 44.84V51H120.87ZM131.11 51.192C132.39 51.192 133.142 50.76 133.542 50.04C133.542 50.264 133.59 50.76 133.622 51H135.542C135.532 50.488 135.528 49.9832 135.527 49.4759L135.526 39.304H133.542V43.464C133.334 43.064 132.694 42.584 131.43 42.584C129.11 42.584 127.702 44.424 127.702 46.968C127.702 49.512 129.03 51.192 131.11 51.192ZM131.67 49.576C130.486 49.576 129.75 48.632 129.75 46.904C129.75 45.208 130.454 44.2 131.734 44.2C133.35 44.2 133.606 45.288 133.606 46.84C133.606 48.232 133.35 49.576 131.67 49.576ZM142.79 51L143.766 48.184H147.942L148.95 51H151.142L147.158 39.928H144.566L140.742 51H142.79ZM147.462 46.456H144.23C144.934 44.296 145.51 42.5201 145.782 41.48H145.798C146.07 42.424 146.598 43.928 147.462 46.456ZM155.158 51.192C156.278 51.192 157.03 50.808 157.494 49.96C157.51 50.312 157.526 50.776 157.558 51H159.494C159.483 50.5315 159.48 49.916 159.479 49.311L159.478 42.776H157.494V47.128C157.494 48.888 157.014 49.544 155.814 49.544C154.694 49.544 154.406 48.712 154.406 47.752V42.776H152.422V48.152C152.422 50.28 153.574 51.192 155.158 51.192ZM164.118 51.112C164.566 51.112 165.142 51.0961 165.558 50.952V49.56C165.366 49.592 165.126 49.592 164.966 49.592C164.262 49.592 164.07 49.304 164.07 48.616V44.296H165.75V42.776H164.07V40.488H162.086V42.776H160.774V44.296H162.086V48.904C162.086 50.312 162.63 51.112 164.118 51.112ZM169.206 51V46.584C169.206 45.176 169.59 44.216 170.934 44.216C171.974 44.216 172.422 44.856 172.422 46.04V51H174.39V45.736C174.39 43.432 173.094 42.584 171.638 42.584C170.278 42.584 169.59 43.224 169.206 43.832V39.304H167.222V51H169.206ZM179.846 51.192C182.326 51.192 183.222 49.624 183.526 48.6H181.526C181.302 49.128 180.966 49.608 179.91 49.608C178.678 49.608 178.054 48.536 178.054 47.304H183.606C183.638 47.064 183.638 46.872 183.638 46.6C183.638 44.648 182.71 42.584 179.942 42.584C177.35 42.584 176.054 44.456 176.054 47C176.054 49.144 177.19 51.192 179.846 51.192ZM181.638 46.04H178.102C178.214 44.872 178.71 44.04 179.926 44.04C181.142 44.04 181.622 44.936 181.638 46.04ZM187.27 51V46.488C187.27 44.968 187.846 44.216 189.014 44.216C190.102 44.216 190.47 44.952 190.47 45.976V51H192.454V45.752C192.454 43.64 191.334 42.584 189.718 42.584C188.23 42.584 187.558 43.352 187.27 43.928C187.27 43.672 187.238 43 187.19 42.776H185.27C185.28 43.1504 185.284 43.5652 185.285 43.9891L185.286 44.84V51H187.27ZM197.078 51.112C197.526 51.112 198.102 51.0961 198.518 50.952V49.56C198.326 49.592 198.086 49.592 197.926 49.592C197.222 49.592 197.03 49.304 197.03 48.616V44.296H198.71V42.776H197.03V40.488H195.046V42.776H193.734V44.296H195.046V48.904C195.046 50.312 195.59 51.112 197.078 51.112ZM202.166 41.24V39.304H200.182V41.24H202.166ZM202.166 51V42.776H200.182V51H202.166ZM207.654 51.192C209.99 51.192 210.95 49.768 211.254 48.392H209.286C209.046 49.128 208.566 49.624 207.702 49.624C206.55 49.624 205.878 48.664 205.878 46.872C205.878 45.192 206.534 44.168 207.718 44.168C208.71 44.168 209.142 44.712 209.302 45.448H211.254C211.19 44.472 210.39 42.584 207.766 42.584C205.27 42.584 203.846 44.552 203.846 46.936C203.846 49.464 205.19 51.192 207.654 51.192ZM214.758 41.24V39.304H212.774V41.24H214.758ZM214.758 51V42.776H212.774V51H214.758ZM219.398 51.112C219.846 51.112 220.422 51.0961 220.838 50.952V49.56C220.646 49.592 220.406 49.592 220.246 49.592C219.542 49.592 219.35 49.304 219.35 48.616V44.296H221.03V42.776H219.35V40.488H217.366V42.776H216.054V44.296H217.366V48.904C217.366 50.312 217.91 51.112 219.398 51.112ZM223.254 54.344C225.126 54.344 225.766 53.672 226.566 51.288L229.398 42.776H227.414C226.31 46.472 225.798 48.328 225.59 49.192H225.574C225.414 48.392 224.678 45.992 223.654 42.776H221.526L224.55 51.272C224.182 52.344 223.766 52.68 222.87 52.68C222.662 52.68 222.422 52.664 222.246 52.648V54.28C222.614 54.328 223.03 54.344 223.254 54.344Z" fill="black"/>
</g>
</g>
<defs>
<clipPath id="clip0_1_4335">
<rect width="68" height="54" fill="white" transform="translate(0 4)"/>
</clipPath>
<clipPath id="clip1_1_4335">
<rect width="68" height="54" fill="white" transform="translate(0 4)"/>
</clipPath>
<clipPath id="clip2_1_4335">
<rect width="150" height="48" fill="white" transform="translate(109 7)"/>
</clipPath>
<clipPath id="clip3_1_4335">
<rect width="150" height="48" fill="white" transform="translate(109 7)"/>
</clipPath>
</defs>
</svg>
